<svg xmlns="http://www.w3.org/2000/svg" xml:space="preserve" width="2000" height="143" data-id="lg_r8DESizduDMOD1HNCP" data-version="1" viewBox="0 0 2000 143"><g data-padding="20"><g transform="translate(10 2.554)scale(.96429)"><rect width="394.406" height="100.57" x="328.119" y="-50.715" fill="none" rx="0" ry="0" transform="translate(280.71 72.11)scale(1.42)"/><path fill="#3d9970" d="M770.737 112.14q-6.19 0-11.44-1.83-5.24-1.84-8.4-5.12-3.16-3.29-3.16-7.71 0-2.91 1.39-5.12t3.79-2.21q1.52 0 3.16 1.14 3.16 2.78 8.15 4.86 4.99 2.09 10.68 2.09 7.45 0 12.19-2.97t4.74-8.03q0-4.8-4.42-6.95t-12.26-4.04q-5.81-1.39-11.18-3.54t-8.85-6q-3.47-3.86-3.47-10.3 0-4.93 2.14-9.79 2.15-4.87 6.32-8.91 4.17-4.05 10.11-6.51 5.94-2.47 13.4-2.47 5.56 0 10.17 1.27 4.61 1.26 7.33 3.54 2.72 2.27 2.72 5.56 0 2.52-1.39 4.42t-3.29 2.97q-1.89 1.07-3.28 1.07-1.27 0-3.42-1.13-3.54-1.9-7.89-2.97-4.36-1.08-7.65-1.08-6.19 0-10.05 2.72-3.85 2.72-3.85 6.38 0 4.04 4.86 6.76 4.87 2.72 17.51 5.75 8.59 2.28 13.39 6.26t4.8 12.57q0 7.71-4.1 14.41-4.11 6.69-11.5 10.8-7.4 4.11-17.25 4.11m60.77 0q-8.72 0-13.96-4.74-5.25-4.74-5.25-13.97 0-4.29 1.2-8.34 1.2-4.04 3.23-7.58-2.03 1.27-3.04 1.27-1.51 0-2.08-1.71t-.57-3.35q0-2.9 1.2-4.61t2.34-2.59q2.65-2.28 8.34-4.99 5.68-2.72 13.65-2.72 10.86 0 16.87 6.07 6 6.06 6 16.93 0 8.47-3.54 15.35-3.54 6.89-9.79 10.93-6.26 4.05-14.6 4.05m3.92-12.89q6.32 0 10.68-3.98t4.36-10.55q0-6.83-4.43-9.73-4.42-2.91-10.23-2.91-2.66 0-4.8.5-2.15.51-4.05 1.27-1.77 2.53-3.16 5.68-1.39 3.16-1.39 6.95 0 6.32 3.79 9.55 3.79 3.22 9.23 3.22m41.45 12.5q-3.67 0-5.44-2.02-1.77-2.03-1.77-7.08 0-2.4.38-6.19t.89-8.22q.76-5.43 1.32-11.37.57-5.94.57-11.37 0-7.71-.69-15.99-.7-8.27-3.86-14.47-1.13-2.52-1.13-3.66 0-1.64 1.45-3.16t3.6-2.59q2.15-1.08 4.17-1.08 3.29 0 4.93 2.97t2.15 8.09q.5 5.12.5 11.69 0 9.98-.82 17.31t-1.58 12.89q-.5 3.67-.95 6.95-.44 3.29-.44 5.94 0 4.43 1.46 6.38 1.45 1.96 4.73 3.86.89.5 1.33.95.44.44.44 1.32 0 1.01-1.01 3.16t-3.47 3.92q-2.47 1.77-6.76 1.77m37.78.39q-8.72 0-13.96-4.74-5.25-4.74-5.25-13.97 0-4.29 1.2-8.34 1.2-4.04 3.23-7.58-2.03 1.27-3.04 1.27-1.51 0-2.08-1.71t-.57-3.35q0-2.9 1.2-4.61t2.34-2.59q2.65-2.28 8.34-4.99 5.68-2.72 13.65-2.72 10.86 0 16.87 6.07 6 6.06 6 16.93 0 8.47-3.54 15.35-3.54 6.89-9.79 10.93-6.26 4.05-14.6 4.05m3.92-12.89q6.32 0 10.68-3.98t4.36-10.55q0-6.83-4.43-9.73-4.42-2.91-10.23-2.91-2.66 0-4.81.5-2.14.51-4.04 1.27-1.77 2.53-3.16 5.68-1.39 3.16-1.39 6.95 0 6.32 3.79 9.55 3.79 3.22 9.23 3.22m39.56 35.5q-2.4 0-3.66-1.2-1.27-1.2-1.14-4.36 0-1.9.31-6.76.32-4.87.89-11.5.57-6.64 1.26-13.84.7-7.2 1.33-13.9t1.14-11.5q-1.27.13-2.4.19-1.14.06-2.28.32-1.26.25-1.89.25-1.52 0-2.03-1.83-.5-1.84-.5-3.48 0-1.89.57-3.16.57-1.26 2.46-2.02 1.14-.51 2.97-.89 1.83-.37 3.86-.63.63-7.45 1.95-14.15 1.33-6.7 4.11-11.37 2.91-4.81 7.9-7.59t10.17-2.78q3.79 0 7.14 1.46 3.35 1.45 5.44 4.04 2.08 2.59 2.08 5.88 0 2.4-1.2 3.92-1.2 1.51-2.72 1.51-.63 0-1.39-.25t-1.51-.51q-1.39-.63-3.48-1.07-2.08-.44-4.48-.44-4.93 0-7.78 2.65-2.84 2.65-4.29 7.27-1.46 4.61-2.34 10.67 2.65-.25 5.69-.5 3.03-.25 4.92-.25 3.04 0 4.74.94 1.71.95 1.71 3.61 0 1.64-.57 3.85t-1.71 3.92q-1.13 1.7-2.65 1.7-.63 0-2.15-.38-1.64-.25-4.29-.63-2.66-.38-6.7-.5-.51 5.43-.82 12.07-.32 6.63-.32 13.96 0 7.96.51 13.77.5 5.82 1.01 9.48.25 1.64.38 2.91.12 1.26.12 2.02 0 3.66-1.77 5.62t-4.17 2.72-4.42.76m44.61-22.61q-7.58 0-12.2-4.74-4.61-4.74-4.61-13.59 0-6.31 2.47-12.57 2.46-6.25 7.14-11.31 4.67-5.05 11.24-8.09 6.57-3.03 14.79-3.03 7.58 0 12.95 2.59t5.37 7.01q0 1.14-.25 2.97-.26 1.84-.63 2.97-.38 1.01-1.08 1.84-.69.82-1.83.82-.51 0-1.9-.38-.5 2.65-.75 5.18-.26 2.53-.26 5.05 0 4.81 1.46 8.53 1.45 3.73 5.75 4.62 1.13.25 1.83.75.69.51.69 2.15 0 1.39-.69 3.54-.7 2.15-2.66 3.86-1.95 1.7-5.62 1.7-4.93 0-7.58-3.6t-2.65-10.3q-3.42 6.19-8.66 10.11-5.25 3.92-12.32 3.92m4.04-13.14q5.06 0 8.91-3.16 3.86-3.16 6-7.97 1.39-3.03 2.15-6.63t1.01-7.14q-2.15-1.01-4.93-1.64t-5.81-.63q-7.71 0-12.7 4.55-4.99 4.54-4.99 11.37 0 5.05 2.78 8.15t7.58 3.1m49.91 12.88q-2.02 0-3.23-.69-1.2-.7-.82-2.34 1.39-5.43 2.34-11.06.95-5.62.95-10.8 0-6.7-.82-9.79-.82-3.1-2.21-4.3t-3.42-1.83q-.88-.38-1.58-1.01-.69-.63-.69-1.77 0-1.77 1.39-3.92t3.92-3.73q2.52-1.58 5.81-1.58 4.3 0 6 2.97 1.71 2.97 1.71 7.77 2.27-5.05 5.62-8.02t8.41-2.97q3.41 0 5.68 1.52 2.28 1.51 2.28 4.93 0 3.41-2.22 6.38-2.21 2.97-4.48 2.97-.38 0-.89-.13-.5-.13-.88-.63-1.64-2.02-4.04-2.02-3.67 0-6.45 4.8t-3.03 13.27q.12 3.16.19 6.44.06 3.29.06 4.8 0 4.68-2.59 7.71t-7.01 3.03m41.96 0q-4.55 0-4.04-3.03 1.39-5.43 2.34-11.06.94-5.62.94-10.8 0-6.7-.82-9.79-.82-3.1-2.21-4.3t-3.41-1.83q-.89-.38-1.58-1.01-.7-.63-.7-1.77 0-1.77 1.39-3.92t3.98-3.73 5.88-1.58q4.3 0 5.94 2.97t1.64 7.77q0 3.16-.63 7.08t-1.26 7.08l.25.12q2.02-6.69 4.99-12.38t7.2-9.23q4.24-3.53 9.8-3.53 5.68 0 8.97 3.85 3.29 3.86 3.29 11.31v2.78q3.66-7.71 8.9-12.89 5.25-5.18 12.7-5.18 6.07 0 9.48 4.04 3.41 4.05 3.41 10.11 0 2.4-.5 4.62-.51 2.21-1.14 4.36-.5 2.02-1.01 4.17-.51 2.14-.51 4.29 0 7.58 6.45 9.86.88.38 1.39.82.5.44.5 1.58t-.69 3.29q-.7 2.14-2.72 3.98-2.02 1.83-5.81 1.83-4.93 0-7.58-3.6-2.66-3.6-2.66-9.16 0-2.78.51-5.82.5-3.03 1.26-5.81.63-2.53 1.08-4.8.44-2.28.44-3.92 0-3.03-1.45-4.42-1.46-1.39-3.86-1.39-4.04 0-7.26 2.52-3.23 2.53-5.69 6.58-2.46 4.04-4.23 8.84.12 1.14.19 2.97.06 1.83.06 3.22 0 2.4-.32 5.06-.31 2.65-1.2 4.42-1.01 2.4-2.97 3.92-1.96 1.51-5.24 1.51-1.39 0-2.66-.56-1.26-.57-1.26-1.84 0-.5.76-4.48t1.52-9.8q.75-5.81.75-11.37 0-6.06-1.26-8.4t-3.79-2.34q-3.16 0-6 2.65-2.85 2.66-5.18 6.83-2.34 4.17-4.05 8.72-1.7 4.55-2.71 8.46v1.39q0 4.68-2.6 7.71-2.59 3.03-7.01 3.03m107.92.25q-9.6 0-14.98-5.5-5.37-5.5-5.37-15.35 0-8.98 3.92-16.3 3.92-7.33 10.55-11.69 6.64-4.36 14.6-4.36 7.58 0 12.13 3.72 4.55 3.73 4.55 9.92 0 4.93-3.03 9.1-3.04 4.17-8.09 6.64-5.06 2.46-11.25 2.46-7.58 0-12.38-3.41.12 5.81 3.98 9.35 3.85 3.54 9.92 3.54 3.66 0 7.52-1.33 3.85-1.32 6.63-3.6 1.77-1.52 3.29-1.52 1.26 0 2.08.83.82.82.82 2.08 0 2.78-4.8 7.33-8.47 8.09-20.09 8.09m1.89-29.7q4.55 0 7.59-1.89 3.03-1.9 3.03-4.81 0-2.4-2.02-3.72-2.02-1.33-5.56-1.33-4.68 0-8.15 2.46-3.48 2.47-4.99 6.89 1.76 1.14 4.54 1.77t5.56.63m39.17 29.45q-2.02 0-3.22-.69-1.2-.7-.83-2.34 1.39-5.43 2.34-11.06.95-5.62.95-10.8 0-6.7-.82-9.79-.82-3.1-2.21-4.3t-3.41-1.83q-.89-.38-1.58-1.01-.7-.63-.7-1.77 0-1.77 1.39-3.92t3.92-3.73 5.81-1.58q4.3 0 6 2.97 1.71 2.97 1.71 7.77 2.27-5.05 5.62-8.02t8.41-2.97q3.41 0 5.68 1.52 2.28 1.51 2.28 4.93 0 3.41-2.21 6.38-2.22 2.97-4.49 2.97-.38 0-.88-.13-.51-.13-.89-.63-1.64-2.02-4.04-2.02-3.67 0-6.45 4.8t-3.03 13.27q.13 3.16.19 6.44.06 3.29.06 4.8 0 4.68-2.59 7.71t-7.01 3.03"/></g><path fill="transparent" stroke="transparent" d="M720 0h560v143H720z"/></g></svg>